<?xml version="1.0" encoding="UTF-8" standalone="no"?>
<!DOCTYPE svg PUBLIC "-//W3C//DTD SVG 1.1//EN"
 "http://www.w3.org/Graphics/SVG/1.1/DTD/svg11.dtd">
<!-- Generated by graphviz version 2.40.1 (0)
 -->
<!-- Title: %3 Pages: 1 -->
<svg width="662pt" height="404pt"
 viewBox="0.00 0.00 662.44 404.00" xmlns="http://www.w3.org/2000/svg" xmlns:xlink="http://www.w3.org/1999/xlink">
<g id="graph0" class="graph" transform="scale(1 1) rotate(0) translate(4 400)">
<title>%3</title>
<polygon fill="#ffffff" stroke="transparent" points="-4,4 -4,-400 658.44,-400 658.44,4 -4,4"/>
<!-- [root] aws_network_acl.bar (expand) -->
<g id="node1" class="node">
<title>[root] aws_network_acl.bar (expand)</title>
<polygon fill="none" stroke="#000000" points="411.22,-180 243.22,-180 243.22,-144 411.22,-144 411.22,-180"/>
<text text-anchor="middle" x="327.22" y="-158.3" font-family="Times,serif" font-size="14.00" fill="#000000">aws_network_acl.bar</text>
</g>
<!-- [root] aws_vpc.foo (expand) -->
<g id="node3" class="node">
<title>[root] aws_vpc.foo (expand)</title>
<polygon fill="none" stroke="#000000" points="379.22,-108 275.22,-108 275.22,-72 379.22,-72 379.22,-108"/>
<text text-anchor="middle" x="327.22" y="-86.3" font-family="Times,serif" font-size="14.00" fill="#000000">aws_vpc.foo</text>
</g>
<!-- [root] aws_network_acl.bar (expand)&#45;&gt;[root] aws_vpc.foo (expand) -->
<g id="edge1" class="edge">
<title>[root] aws_network_acl.bar (expand)&#45;&gt;[root] aws_vpc.foo (expand)</title>
<path fill="none" stroke="#000000" d="M327.22,-143.8314C327.22,-136.131 327.22,-126.9743 327.22,-118.4166"/>
<polygon fill="#000000" stroke="#000000" points="330.7201,-118.4132 327.22,-108.4133 323.7201,-118.4133 330.7201,-118.4132"/>
</g>
<!-- [root] aws_network_acl_rule.bar (expand) -->
<g id="node2" class="node">
<title>[root] aws_network_acl_rule.bar (expand)</title>
<polygon fill="none" stroke="#000000" points="429.22,-252 225.22,-252 225.22,-216 429.22,-216 429.22,-252"/>
<text text-anchor="middle" x="327.22" y="-230.3" font-family="Times,serif" font-size="14.00" fill="#000000">aws_network_acl_rule.bar</text>
</g>
<!-- [root] aws_network_acl_rule.bar (expand)&#45;&gt;[root] aws_network_acl.bar (expand) -->
<g id="edge2" class="edge">
<title>[root] aws_network_acl_rule.bar (expand)&#45;&gt;[root] aws_network_acl.bar (expand)</title>
<path fill="none" stroke="#000000" d="M327.22,-215.8314C327.22,-208.131 327.22,-198.9743 327.22,-190.4166"/>
<polygon fill="#000000" stroke="#000000" points="330.7201,-190.4132 327.22,-180.4133 323.7201,-190.4133 330.7201,-190.4132"/>
</g>
<!-- [root] provider[&quot;registry.terraform.io/hashicorp/aws&quot;] -->
<g id="node4" class="node">
<title>[root] provider[&quot;registry.terraform.io/hashicorp/aws&quot;]</title>
<polygon fill="none" stroke="#000000" points="327.22,-36 -.2201,-18 327.22,0 654.6601,-18 327.22,-36"/>
<text text-anchor="middle" x="327.22" y="-14.3" font-family="Times,serif" font-size="14.00" fill="#000000">provider[&quot;registry.terraform.io/hashicorp/aws&quot;]</text>
</g>
<!-- [root] aws_vpc.foo (expand)&#45;&gt;[root] provider[&quot;registry.terraform.io/hashicorp/aws&quot;] -->
<g id="edge3" class="edge">
<title>[root] aws_vpc.foo (expand)&#45;&gt;[root] provider[&quot;registry.terraform.io/hashicorp/aws&quot;]</title>
<path fill="none" stroke="#000000" d="M327.22,-71.8314C327.22,-64.131 327.22,-54.9743 327.22,-46.4166"/>
<polygon fill="#000000" stroke="#000000" points="330.7201,-46.4132 327.22,-36.4133 323.7201,-46.4133 330.7201,-46.4132"/>
</g>
<!-- [root] provider[&quot;registry.terraform.io/hashicorp/aws&quot;] (close) -->
<g id="node5" class="node">
<title>[root] provider[&quot;registry.terraform.io/hashicorp/aws&quot;] (close)</title>
<ellipse fill="none" stroke="#000000" cx="327.22" cy="-306" rx="293.548" ry="18"/>
<text text-anchor="middle" x="327.22" y="-302.3" font-family="Times,serif" font-size="14.00" fill="#000000">[root] provider[&quot;registry.terraform.io/hashicorp/aws&quot;] (close)</text>
</g>
<!-- [root] provider[&quot;registry.terraform.io/hashicorp/aws&quot;] (close)&#45;&gt;[root] aws_network_acl_rule.bar (expand) -->
<g id="edge4" class="edge">
<title>[root] provider[&quot;registry.terraform.io/hashicorp/aws&quot;] (close)&#45;&gt;[root] aws_network_acl_rule.bar (expand)</title>
<path fill="none" stroke="#000000" d="M327.22,-287.8314C327.22,-280.131 327.22,-270.9743 327.22,-262.4166"/>
<polygon fill="#000000" stroke="#000000" points="330.7201,-262.4132 327.22,-252.4133 323.7201,-262.4133 330.7201,-262.4132"/>
</g>
<!-- [root] root -->
<g id="node6" class="node">
<title>[root] root</title>
<ellipse fill="none" stroke="#000000" cx="327.22" cy="-378" rx="58.4896" ry="18"/>
<text text-anchor="middle" x="327.22" y="-374.3" font-family="Times,serif" font-size="14.00" fill="#000000">[root] root</text>
</g>
<!-- [root] root&#45;&gt;[root] provider[&quot;registry.terraform.io/hashicorp/aws&quot;] (close) -->
<g id="edge5" class="edge">
<title>[root] root&#45;&gt;[root] provider[&quot;registry.terraform.io/hashicorp/aws&quot;] (close)</title>
<path fill="none" stroke="#000000" d="M327.22,-359.8314C327.22,-352.131 327.22,-342.9743 327.22,-334.4166"/>
<polygon fill="#000000" stroke="#000000" points="330.7201,-334.4132 327.22,-324.4133 323.7201,-334.4133 330.7201,-334.4132"/>
</g>
</g>
</svg>
