<?xml version="1.0" encoding="UTF-8" standalone="no"?>
<!DOCTYPE svg PUBLIC "-//W3C//DTD SVG 1.1//EN"
 "http://www.w3.org/Graphics/SVG/1.1/DTD/svg11.dtd">
<!-- Generated by graphviz version 2.40.1 (0)
 -->
<!-- Title: %3 Pages: 1 -->
<svg width="1212pt" height="404pt"
 viewBox="0.00 0.00 1212.00 404.00" xmlns="http://www.w3.org/2000/svg" xmlns:xlink="http://www.w3.org/1999/xlink">
<g id="graph0" class="graph" transform="scale(1 1) rotate(0) translate(4 400)">
<title>%3</title>
<polygon fill="#ffffff" stroke="transparent" points="-4,4 -4,-400 1208,-400 1208,4 -4,4"/>
<!-- [root] aws_instance.web&#45;server (expand) -->
<g id="node1" class="node">
<title>[root] aws_instance.web&#45;server (expand)</title>
<polygon fill="none" stroke="#000000" points="853,-252 656,-252 656,-216 853,-216 853,-252"/>
<text text-anchor="middle" x="754.5" y="-230.3" font-family="Times,serif" font-size="14.00" fill="#000000">aws_instance.web&#45;server</text>
</g>
<!-- [root] aws_security_group.ch1&#45;sg (expand) -->
<g id="node2" class="node">
<title>[root] aws_security_group.ch1&#45;sg (expand)</title>
<polygon fill="none" stroke="#000000" points="409.5,-180 197.5,-180 197.5,-144 409.5,-144 409.5,-180"/>
<text text-anchor="middle" x="303.5" y="-158.3" font-family="Times,serif" font-size="14.00" fill="#000000">aws_security_group.ch1&#45;sg</text>
</g>
<!-- [root] aws_instance.web&#45;server (expand)&#45;&gt;[root] aws_security_group.ch1&#45;sg (expand) -->
<g id="edge1" class="edge">
<title>[root] aws_instance.web&#45;server (expand)&#45;&gt;[root] aws_security_group.ch1&#45;sg (expand)</title>
<path fill="none" stroke="#000000" d="M655.8049,-218.2438C586.3547,-207.1564 493.1284,-192.2733 420.0215,-180.6021"/>
<polygon fill="#000000" stroke="#000000" points="420.2706,-177.0976 409.8439,-178.9773 419.167,-184.0101 420.2706,-177.0976"/>
</g>
<!-- [root] data.aws_subnet.subnet (expand) -->
<g id="node3" class="node">
<title>[root] data.aws_subnet.subnet (expand)</title>
<polygon fill="none" stroke="#000000" points="617.5,-180 427.5,-180 427.5,-144 617.5,-144 617.5,-180"/>
<text text-anchor="middle" x="522.5" y="-158.3" font-family="Times,serif" font-size="14.00" fill="#000000">data.aws_subnet.subnet</text>
</g>
<!-- [root] aws_instance.web&#45;server (expand)&#45;&gt;[root] data.aws_subnet.subnet (expand) -->
<g id="edge2" class="edge">
<title>[root] aws_instance.web&#45;server (expand)&#45;&gt;[root] data.aws_subnet.subnet (expand)</title>
<path fill="none" stroke="#000000" d="M696.2561,-215.9243C664.1266,-205.9531 624.0606,-193.5188 590.5018,-183.104"/>
<polygon fill="#000000" stroke="#000000" points="591.356,-179.7045 580.7679,-180.0831 589.2811,-186.3899 591.356,-179.7045"/>
</g>
<!-- [root] var.frank_ubuntu_2204_ami_id -->
<g id="node8" class="node">
<title>[root] var.frank_ubuntu_2204_ami_id</title>
<polygon fill="none" stroke="#000000" points="867.5,-180 635.5,-180 635.5,-144 873.5,-144 873.5,-174 867.5,-180"/>
<polyline fill="none" stroke="#000000" points="867.5,-180 867.5,-174 "/>
<polyline fill="none" stroke="#000000" points="873.5,-174 867.5,-174 "/>
<text text-anchor="middle" x="754.5" y="-158.3" font-family="Times,serif" font-size="14.00" fill="#000000">var.frank_ubuntu_2204_ami_id</text>
</g>
<!-- [root] aws_instance.web&#45;server (expand)&#45;&gt;[root] var.frank_ubuntu_2204_ami_id -->
<g id="edge3" class="edge">
<title>[root] aws_instance.web&#45;server (expand)&#45;&gt;[root] var.frank_ubuntu_2204_ami_id</title>
<path fill="none" stroke="#000000" d="M754.5,-215.8314C754.5,-208.131 754.5,-198.9743 754.5,-190.4166"/>
<polygon fill="#000000" stroke="#000000" points="758.0001,-190.4132 754.5,-180.4133 751.0001,-190.4133 758.0001,-190.4132"/>
</g>
<!-- [root] var.instance_type -->
<g id="node10" class="node">
<title>[root] var.instance_type</title>
<polygon fill="none" stroke="#000000" points="1029,-180 892,-180 892,-144 1035,-144 1035,-174 1029,-180"/>
<polyline fill="none" stroke="#000000" points="1029,-180 1029,-174 "/>
<polyline fill="none" stroke="#000000" points="1035,-174 1029,-174 "/>
<text text-anchor="middle" x="963.5" y="-158.3" font-family="Times,serif" font-size="14.00" fill="#000000">var.instance_type</text>
</g>
<!-- [root] aws_instance.web&#45;server (expand)&#45;&gt;[root] var.instance_type -->
<g id="edge4" class="edge">
<title>[root] aws_instance.web&#45;server (expand)&#45;&gt;[root] var.instance_type</title>
<path fill="none" stroke="#000000" d="M806.9698,-215.9243C835.6655,-206.0387 871.3888,-193.7321 901.46,-183.3726"/>
<polygon fill="#000000" stroke="#000000" points="902.694,-186.6495 911.0087,-180.0831 900.4139,-180.0312 902.694,-186.6495"/>
</g>
<!-- [root] var.key_pair_name -->
<g id="node11" class="node">
<title>[root] var.key_pair_name</title>
<polygon fill="none" stroke="#000000" points="1198,-180 1053,-180 1053,-144 1204,-144 1204,-174 1198,-180"/>
<polyline fill="none" stroke="#000000" points="1198,-180 1198,-174 "/>
<polyline fill="none" stroke="#000000" points="1204,-174 1198,-174 "/>
<text text-anchor="middle" x="1128.5" y="-158.3" font-family="Times,serif" font-size="14.00" fill="#000000">var.key_pair_name</text>
</g>
<!-- [root] aws_instance.web&#45;server (expand)&#45;&gt;[root] var.key_pair_name -->
<g id="edge5" class="edge">
<title>[root] aws_instance.web&#45;server (expand)&#45;&gt;[root] var.key_pair_name</title>
<path fill="none" stroke="#000000" d="M853.283,-216.2887C906.79,-206.5322 974.3022,-193.9612 1042.845,-180.3088"/>
<polygon fill="#000000" stroke="#000000" points="1043.8435,-183.6786 1052.9638,-178.2869 1042.4718,-176.8143 1043.8435,-183.6786"/>
</g>
<!-- [root] data.aws_vpc.default_vpc (expand) -->
<g id="node4" class="node">
<title>[root] data.aws_vpc.default_vpc (expand)</title>
<polygon fill="none" stroke="#000000" points="247,-108 46,-108 46,-72 247,-72 247,-108"/>
<text text-anchor="middle" x="146.5" y="-86.3" font-family="Times,serif" font-size="14.00" fill="#000000">data.aws_vpc.default_vpc</text>
</g>
<!-- [root] aws_security_group.ch1&#45;sg (expand)&#45;&gt;[root] data.aws_vpc.default_vpc (expand) -->
<g id="edge6" class="edge">
<title>[root] aws_security_group.ch1&#45;sg (expand)&#45;&gt;[root] data.aws_vpc.default_vpc (expand)</title>
<path fill="none" stroke="#000000" d="M263.8823,-143.8314C242.9778,-134.2446 217.1517,-122.4008 195.0512,-112.2655"/>
<polygon fill="#000000" stroke="#000000" points="196.3816,-109.0252 185.8328,-108.038 193.4636,-115.388 196.3816,-109.0252"/>
</g>
<!-- [root] var.ingress_rules -->
<g id="node9" class="node">
<title>[root] var.ingress_rules</title>
<polygon fill="none" stroke="#000000" points="398,-108 265,-108 265,-72 404,-72 404,-102 398,-108"/>
<polyline fill="none" stroke="#000000" points="398,-108 398,-102 "/>
<polyline fill="none" stroke="#000000" points="404,-102 398,-102 "/>
<text text-anchor="middle" x="334.5" y="-86.3" font-family="Times,serif" font-size="14.00" fill="#000000">var.ingress_rules</text>
</g>
<!-- [root] aws_security_group.ch1&#45;sg (expand)&#45;&gt;[root] var.ingress_rules -->
<g id="edge7" class="edge">
<title>[root] aws_security_group.ch1&#45;sg (expand)&#45;&gt;[root] var.ingress_rules</title>
<path fill="none" stroke="#000000" d="M311.3226,-143.8314C314.7109,-135.9617 318.7541,-126.5712 322.5076,-117.8533"/>
<polygon fill="#000000" stroke="#000000" points="325.8321,-118.9822 326.5721,-108.4133 319.4027,-116.214 325.8321,-118.9822"/>
</g>
<!-- [root] provider[&quot;registry.terraform.io/hashicorp/aws&quot;] -->
<g id="node5" class="node">
<title>[root] provider[&quot;registry.terraform.io/hashicorp/aws&quot;]</title>
<polygon fill="none" stroke="#000000" points="492.5,-36 165.0599,-18 492.5,0 819.9401,-18 492.5,-36"/>
<text text-anchor="middle" x="492.5" y="-14.3" font-family="Times,serif" font-size="14.00" fill="#000000">provider[&quot;registry.terraform.io/hashicorp/aws&quot;]</text>
</g>
<!-- [root] data.aws_subnet.subnet (expand)&#45;&gt;[root] provider[&quot;registry.terraform.io/hashicorp/aws&quot;] -->
<g id="edge8" class="edge">
<title>[root] data.aws_subnet.subnet (expand)&#45;&gt;[root] provider[&quot;registry.terraform.io/hashicorp/aws&quot;]</title>
<path fill="none" stroke="#000000" d="M518.7005,-143.7623C513.561,-119.0928 504.3458,-74.8598 498.3277,-45.9731"/>
<polygon fill="#000000" stroke="#000000" points="501.7347,-45.1656 496.2687,-36.0896 494.8819,-46.5933 501.7347,-45.1656"/>
</g>
<!-- [root] var.default_subnet_cidr -->
<g id="node6" class="node">
<title>[root] var.default_subnet_cidr</title>
<polygon fill="none" stroke="#000000" points="700,-108 521,-108 521,-72 706,-72 706,-102 700,-108"/>
<polyline fill="none" stroke="#000000" points="700,-108 700,-102 "/>
<polyline fill="none" stroke="#000000" points="706,-102 700,-102 "/>
<text text-anchor="middle" x="613.5" y="-86.3" font-family="Times,serif" font-size="14.00" fill="#000000">var.default_subnet_cidr</text>
</g>
<!-- [root] data.aws_subnet.subnet (expand)&#45;&gt;[root] var.default_subnet_cidr -->
<g id="edge9" class="edge">
<title>[root] data.aws_subnet.subnet (expand)&#45;&gt;[root] var.default_subnet_cidr</title>
<path fill="none" stroke="#000000" d="M545.4631,-143.8314C556.6715,-134.9632 570.3209,-124.1637 582.4439,-114.5718"/>
<polygon fill="#000000" stroke="#000000" points="584.8737,-117.1125 590.5442,-108.1628 580.5303,-111.6229 584.8737,-117.1125"/>
</g>
<!-- [root] data.aws_vpc.default_vpc (expand)&#45;&gt;[root] provider[&quot;registry.terraform.io/hashicorp/aws&quot;] -->
<g id="edge10" class="edge">
<title>[root] data.aws_vpc.default_vpc (expand)&#45;&gt;[root] provider[&quot;registry.terraform.io/hashicorp/aws&quot;]</title>
<path fill="none" stroke="#000000" d="M233.3638,-71.9243C288.8624,-60.3755 360.2392,-45.5225 414.0254,-34.33"/>
<polygon fill="#000000" stroke="#000000" points="414.7788,-37.7483 423.856,-32.2843 413.3527,-30.8951 414.7788,-37.7483"/>
</g>
<!-- [root] var.default_vpc_id -->
<g id="node7" class="node">
<title>[root] var.default_vpc_id</title>
<polygon fill="none" stroke="#000000" points="141,-36 0,-36 0,0 147,0 147,-30 141,-36"/>
<polyline fill="none" stroke="#000000" points="141,-36 141,-30 "/>
<polyline fill="none" stroke="#000000" points="147,-30 141,-30 "/>
<text text-anchor="middle" x="73.5" y="-14.3" font-family="Times,serif" font-size="14.00" fill="#000000">var.default_vpc_id</text>
</g>
<!-- [root] data.aws_vpc.default_vpc (expand)&#45;&gt;[root] var.default_vpc_id -->
<g id="edge11" class="edge">
<title>[root] data.aws_vpc.default_vpc (expand)&#45;&gt;[root] var.default_vpc_id</title>
<path fill="none" stroke="#000000" d="M128.079,-71.8314C119.3471,-63.219 108.7683,-52.7851 99.2577,-43.4048"/>
<polygon fill="#000000" stroke="#000000" points="101.4925,-40.6931 91.9151,-36.1628 96.577,-45.6769 101.4925,-40.6931"/>
</g>
<!-- [root] var.region -->
<g id="node12" class="node">
<title>[root] var.region</title>
<polygon fill="none" stroke="#000000" points="437,-324 354,-324 354,-288 443,-288 443,-318 437,-324"/>
<polyline fill="none" stroke="#000000" points="437,-324 437,-318 "/>
<polyline fill="none" stroke="#000000" points="443,-318 437,-318 "/>
<text text-anchor="middle" x="398.5" y="-302.3" font-family="Times,serif" font-size="14.00" fill="#000000">var.region</text>
</g>
<!-- [root] provider[&quot;registry.terraform.io/hashicorp/aws&quot;] (close) -->
<g id="node13" class="node">
<title>[root] provider[&quot;registry.terraform.io/hashicorp/aws&quot;] (close)</title>
<ellipse fill="none" stroke="#000000" cx="754.5" cy="-306" rx="293.548" ry="18"/>
<text text-anchor="middle" x="754.5" y="-302.3" font-family="Times,serif" font-size="14.00" fill="#000000">[root] provider[&quot;registry.terraform.io/hashicorp/aws&quot;] (close)</text>
</g>
<!-- [root] provider[&quot;registry.terraform.io/hashicorp/aws&quot;] (close)&#45;&gt;[root] aws_instance.web&#45;server (expand) -->
<g id="edge12" class="edge">
<title>[root] provider[&quot;registry.terraform.io/hashicorp/aws&quot;] (close)&#45;&gt;[root] aws_instance.web&#45;server (expand)</title>
<path fill="none" stroke="#000000" d="M754.5,-287.8314C754.5,-280.131 754.5,-270.9743 754.5,-262.4166"/>
<polygon fill="#000000" stroke="#000000" points="758.0001,-262.4132 754.5,-252.4133 751.0001,-262.4133 758.0001,-262.4132"/>
</g>
<!-- [root] root -->
<g id="node14" class="node">
<title>[root] root</title>
<ellipse fill="none" stroke="#000000" cx="576.5" cy="-378" rx="58.4896" ry="18"/>
<text text-anchor="middle" x="576.5" y="-374.3" font-family="Times,serif" font-size="14.00" fill="#000000">[root] root</text>
</g>
<!-- [root] root&#45;&gt;[root] var.region -->
<g id="edge14" class="edge">
<title>[root] root&#45;&gt;[root] var.region</title>
<path fill="none" stroke="#000000" d="M540.9069,-363.6028C515.658,-353.3898 481.3091,-339.4958 452.672,-327.9123"/>
<polygon fill="#000000" stroke="#000000" points="453.7834,-324.5864 443.2006,-324.0811 451.1585,-331.0756 453.7834,-324.5864"/>
</g>
<!-- [root] root&#45;&gt;[root] provider[&quot;registry.terraform.io/hashicorp/aws&quot;] (close) -->
<g id="edge13" class="edge">
<title>[root] root&#45;&gt;[root] provider[&quot;registry.terraform.io/hashicorp/aws&quot;] (close)</title>
<path fill="none" stroke="#000000" d="M612.0931,-363.6028C637.5243,-353.316 672.1874,-339.295 700.9474,-327.6617"/>
<polygon fill="#000000" stroke="#000000" points="702.4948,-330.8114 710.4527,-323.8169 699.8699,-324.3221 702.4948,-330.8114"/>
</g>
</g>
</svg>
